Coordinates
version=1
nRows=19
nColumns=24
inDegrees=yes

Units are S.I. units (second, meters, Newtons, ...)
Angles are in degrees.

endheader
time	pelvis_tilt	pelvis_list	pelvis_rotation	pelvis_tx	pelvis_ty	pelvis_tz	hip_flexion_r	hip_adduction_r	hip_rotation_r	knee_angle_r	ankle_angle_r	subtalar_angle_r	mtp_angle_r	hip_flexion_l	hip_adduction_l	hip_rotation_l	knee_angle_l	ankle_angle_l	subtalar_angle_l	mtp_angle_l	lumbar_extension	lumbar_bending	lumbar_rotation
      1.09583333	     -2.27945552	      1.05652979	     -0.82224795	      0.08054107	      1.02986024	      0.30373694	    -18.07323702	      0.77564008	     -2.88969576	     -9.63607430	     18.91323745	      4.46787823	      5.40123598	     29.15451133	      0.62771342	     -2.21274610	     -3.19037088	     11.14227065	      5.37877744	      0.89430640	     -8.62944011	      0.05290703	      3.20980280
      1.10000000	     -2.25003489	      1.12988827	     -0.96885658	      0.08694901	      1.02920425	      0.30356392	    -18.24342424	      0.59290582	     -2.91436996	    -10.08493571	     18.72317500	      4.69225152	      5.45313093	     29.16799414	      0.70464154	     -2.17019065	     -3.80118119	     10.91046885	      5.31673708	      0.90391112	     -8.64110737	     -0.17144124	      3.33532790
      1.10416667	     -2.23517993	      1.19112527	     -1.10114626	      0.09337144	      1.02856368	      0.30334991	    -18.38832491	      0.42647495	     -2.93305461	    -10.55210382	     18.48281765	      4.80580512	      5.50030452	     29.20041661	      0.77716817	     -2.09844597	     -4.44117347	     10.62693510	      5.19089929	      0.91102780	     -8.62021433	     -0.34360615	      3.36129816
      1.10833333	     -2.22298512	      1.27924463	     -1.22508228	      0.09981785	      1.02794897	      0.30310664	    -18.49865216	      0.22134366	     -3.06446822	    -11.08916190	     18.32383876	      5.16028226	      5.73303980	     29.20995575	      0.88644310	     -1.92172254	     -5.04991985	     10.23743450	      4.88637856	      0.95923792	     -8.62366096	     -0.58229720	      3.46158454
      1.11250000	     -2.20515849	      1.35175799	     -1.34746629	      0.10630817	      1.02741560	      0.30288631	    -18.63296101	      0.04452853	     -3.07570051	    -11.57665008	     17.97287771	      5.21839727	      5.79506742	     29.23482837	      0.96948149	     -1.87695254	     -5.72560239	      9.86601332	      4.77220515	      0.96766235	     -8.60360726	     -0.77462961	      3.45247691
      1.11666667	     -2.17203756	      1.46500133	     -1.43896295	      0.11281935	      1.02695466	      0.30260270	    -18.76287049	     -0.17614413	     -3.20027038	    -12.10838661	     17.61024941	      5.37241957	      8.25641344	     29.18062767	      1.12692106	     -1.54137776	     -6.27741435	      9.29947901	      4.16679204	      1.48469192	     -8.62275952	     -1.04250510	      3.35668769
      1.12083333	     -2.21231659	      1.55333515	     -1.57309807	      0.11936953	      1.02642547	      0.30235456	    -18.76997760	     -0.39189666	     -3.30509495	    -12.72466739	     17.31079239	      5.66463889	      8.44665557	     29.28707287	      1.21107897	     -1.61222790	     -7.02676630	      8.89383094	      4.14111222	      1.51443376	     -8.53147764	     -1.27842244	      3.53896151
      1.12500000	     -2.21338061	      1.65650725	     -1.67539572	      0.12595237	      1.02603706	      0.30209434	    -18.83787154	     -0.60425278	     -3.36670474	    -13.29526572	     16.86047934	      5.77592027	      8.56292622	     29.32835117	      1.32579656	     -1.59443234	     -7.73421812	      8.41375843	      4.00143504	      1.52557360	     -8.49085484	     -1.53928265	      3.51692694
      1.12916667	     -2.23304902	      1.75310019	     -1.75653280	      0.13250916	      1.02565702	      0.30173544	    -18.84513720	     -0.81734828	     -3.51799922	    -13.94090877	     16.38705325	      5.90493852	     12.10680160	     29.38502187	      1.45414805	     -1.44561175	     -8.43431231	      7.86135272	      3.58116091	      2.02120302	     -8.42476495	     -1.75940924	      3.49912149
      1.13333333	     -2.21308203	      1.86430993	     -1.84968953	      0.13910370	      1.02541911	      0.30143439	    -18.89019489	     -1.04448934	     -3.61437309	    -14.59078475	     15.87201780	      5.98658129	     12.12529953	     29.42642721	      1.57182363	     -1.51235601	     -9.21039082	      7.42106196	      3.46864244	      2.01478908	     -8.40515893	     -2.00685600	      3.48514850
      1.13750000	     -2.24949545	      2.00104857	     -1.92264865	      0.14573293	      1.02512656	      0.30106874	    -18.82884561	     -1.30912289	     -3.83095903	    -15.34308526	     15.45598538	      6.30063701	     12.28671424	     29.52030066	      1.72609109	     -1.50011184	     -9.97515417	      6.92784903	      3.22612573	      2.01348537	     -8.31941884	     -2.31926181	      3.48623910
      1.14166667	     -2.26880237	      2.11333698	     -1.98156476	      0.15233977	      1.02494787	      0.30066526	    -18.77958297	     -1.53971772	     -3.98563005	    -16.08080941	     14.81973134	      6.38937059	     15.17112295	     29.59520515	      1.86401474	     -1.44186745	    -10.74432441	      6.45371130	      2.93300873	      2.08787577	     -8.26065101	     -2.56866374	      3.44017275
      1.14583333	     -2.27268426	      2.23675610	     -2.04013817	      0.15896698	      1.02485583	      0.30028092	    -18.72661214	     -1.78215569	     -4.13088715	    -16.85847511	     14.20686296	      6.50650546	     15.20278935	     29.67059194	      1.99755341	     -1.50715908	    -11.55947806	      6.04003526	      2.83384145	      2.07883457	     -8.21964484	     -2.85163012	      3.40489312
      1.15000000	     -2.30654646	      2.36530987	     -2.08334189	      0.16558047	      1.02474273	      0.29981720	    -18.59007718	     -2.04289887	     -4.36747346	    -17.74242567	     13.66808958	      6.73721718	     15.35076078	     29.78708018	      2.14514433	     -1.54558643	    -12.39951302	      5.66256991	      2.65814314	      2.06353908	     -8.13563620	     -3.11957285	      3.35868208
      1.15416667	     -2.27820945	      2.48075596	     -2.11941673	      0.17217299	      1.02481955	      0.29936486	    -18.52055252	     -2.27860210	     -4.52529552	    -18.60089182	     12.96178790	      6.78194384	     15.40682429	     29.83495884	      2.27819950	     -1.60472960	    -13.24357738	      5.33240087	      2.53253366	      2.05287752	     -8.13478882	     -3.36681181	      3.31548605
      1.15833333	     -2.35442460	      2.62005574	     -2.14118933	      0.17880709	      1.02475215	      0.29883776	    -18.27585496	     -2.55800054	     -4.79659003	    -19.59816550	     12.36765400	      7.06164231	     15.71144537	     29.98525608	      2.44189089	     -1.61823662	    -14.07221182	      5.00457419	      2.38193690	      2.02193599	     -8.00228365	     -3.65862341	      3.23567824
      1.16250000	     -2.33966434	      2.74883854	     -2.15524212	      0.18538057	      1.02491335	      0.29830938	    -18.12449635	     -2.82018531	     -5.01260774	    -20.56358213	     11.54498422	      7.13450423	     19.91947966	     30.03011397	      2.60088380	     -1.62863193	    -14.88866173	      4.71251552	      2.22449356	      1.60511689	     -7.99881598	     -3.92956911	      3.15678032
      1.16666667	     -2.34251321	      2.87634649	     -2.15799881	      0.19196697	      1.02509214	      0.29777117	    -17.92703013	     -3.07707089	     -5.21699016	    -21.58619993	     10.76977618	      7.22398705	     19.94135655	     30.09256642	      2.75608341	     -1.66922369	    -15.71141873	      4.50379915	      2.17683858	      1.59519044	     -7.96547889	     -4.21552709	      3.10042056
      1.17083333	     -2.38046260	      2.99892697	     -2.15580994	      0.19851700	      1.02524134	      0.29716582	    -17.63837835	     -3.34568853	     -5.47048949	    -22.71211964	     10.06500514	      7.40243176	     20.05148248	     30.19169240	      2.90971278	     -1.71118374	    -16.53316242	      4.31354090	      2.10965692	      1.56707310	     -7.88821334	     -4.46486602	      3.01871102
